<svg viewBox="0 0 32 32" fill="none" xmlns="http://www.w3.org/2000/svg">
<path fill-rule="evenodd" clip-rule="evenodd" d="M4 5.33325V7.46659H6.13333L9.97333 15.5626L8.53333 18.1759C8.36267 18.4746 8.26667 18.8266 8.26667 19.1999C8.26667 20.3733 9.22667 21.3333 10.4 21.3333H23.2V19.1999H10.848C10.6987 19.1999 10.5813 19.0826 10.5813 18.9333L10.6133 18.8053L11.5733 17.0666H19.52C20.32 17.0666 21.024 16.6293 21.3867 15.9679L25.2053 9.04525C25.2907 8.89592 25.3333 8.71459 25.3333 8.53325C25.3333 7.94659 24.8533 7.46659 24.2667 7.46659H8.49067L7.488 5.33325H4ZM10.4 22.3999C9.22667 22.3999 8.27733 23.3599 8.27733 24.5333C8.27733 25.7066 9.22667 26.6666 10.4 26.6666C11.5733 26.6666 12.5333 25.7066 12.5333 24.5333C12.5333 23.3599 11.5733 22.3999 10.4 22.3999ZM18.944 24.5333C18.944 23.3599 19.8933 22.3999 21.0667 22.3999C22.24 22.3999 23.2 23.3599 23.2 24.5333C23.2 25.7066 22.24 26.6666 21.0667 26.6666C19.8933 26.6666 18.944 25.7066 18.944 24.5333Z" fill="white"/>
</svg>
