<svg fill="#FFFFFF" xmlns="http://www.w3.org/2000/svg" xmlns:xlink="http://www.w3.org/1999/xlink" version="1.1" x="0px" y="0px" viewBox="0 0 50 50" enable-background="new 0 0 50 50" xml:space="preserve"><g><g><path fill="#FFFFFF" d="M33.921,7.762c0,0.945,0.761,1.711,1.699,1.711c0.932,0,1.691-0.766,1.691-1.711    c0-0.944-0.76-1.713-1.691-1.713C34.682,6.049,33.921,6.817,33.921,7.762z"></path><path fill="#FFFFFF" d="M41.377,15.213c0,0.941,0.761,1.711,1.695,1.711s1.698-0.77,1.698-1.711c0-0.945-0.764-1.714-1.698-1.714    S41.377,14.268,41.377,15.213z"></path><ellipse fill="#FFFFFF" cx="45.868" cy="25.431" rx="1.834" ry="1.854"></ellipse><ellipse fill="#FFFFFF" cx="43.073" cy="35.672" rx="2.186" ry="2.21"></ellipse><path fill="#FFFFFF" d="M33.433,43.215c0,1.219,0.979,2.213,2.188,2.213c1.205,0,2.184-0.994,2.184-2.213s-0.979-2.21-2.184-2.21    C34.411,41.005,33.433,41.996,33.433,43.215z"></path><path fill="#FFFFFF" d="M23.081,46.117c0,1.353,1.088,2.452,2.429,2.452c1.337,0,2.425-1.1,2.425-2.452    c0-1.355-1.088-2.451-2.425-2.451C24.168,43.666,23.081,44.762,23.081,46.117z"></path><ellipse fill="#FFFFFF" cx="15.369" cy="43.215" rx="2.426" ry="2.455"></ellipse><path fill="#FFFFFF" d="M5.063,35.672c0,1.545,1.241,2.797,2.765,2.797c1.529,0,2.768-1.252,2.768-2.797    c0-1.539-1.239-2.791-2.768-2.791C6.304,32.881,5.063,34.133,5.063,35.672z"></path><path fill="#FFFFFF" d="M2.298,25.431c0,1.542,1.239,2.794,2.765,2.794c1.529,0,2.765-1.252,2.765-2.794    c0-1.546-1.236-2.794-2.765-2.794C3.537,22.637,2.298,23.885,2.298,25.431z"></path><path fill="#FFFFFF" d="M4.641,15.213c0,1.778,1.426,3.22,3.187,3.22c1.763,0,3.192-1.441,3.192-3.22    c0-1.781-1.429-3.226-3.192-3.226C6.067,11.987,4.641,13.432,4.641,15.213z"></path><path fill="#FFFFFF" d="M12.18,7.762c0,1.781,1.427,3.224,3.189,3.224c1.76,0,3.191-1.442,3.191-3.224    c0-1.775-1.432-3.223-3.191-3.223C13.607,4.539,12.18,5.986,12.18,7.762z"></path><path fill="#FFFFFF" d="M22.035,4.938c0,1.936,1.556,3.506,3.474,3.506c1.914,0,3.468-1.57,3.468-3.506    c0-1.938-1.555-3.508-3.468-3.508C23.591,1.431,22.035,3,22.035,4.938z"></path></g></g></svg>