<svg viewBox="0 0 64 64" fill="none" xmlns="http://www.w3.org/2000/svg">
<path fill-rule="evenodd" clip-rule="evenodd" d="M39.2267 37.3333H41.3333L54.64 50.6667L50.6667 54.64L37.3333 41.3333V39.2267L36.6133 38.48C33.5733 41.0933 29.6267 42.6667 25.3333 42.6667C15.76 42.6667 8 34.9067 8 25.3333C8 15.76 15.76 8 25.3333 8C34.9067 8 42.6667 15.76 42.6667 25.3333C42.6667 29.6267 41.0933 33.5733 38.48 36.6133L39.2267 37.3333ZM13.3333 25.3333C13.3333 31.9733 18.6933 37.3333 25.3333 37.3333C31.9733 37.3333 37.3333 31.9733 37.3333 25.3333C37.3333 18.6933 31.9733 13.3333 25.3333 13.3333C18.6933 13.3333 13.3333 18.6933 13.3333 25.3333Z" fill="white"/>
</svg>
